<svg width="190" height="62" viewBox="0 0 190 62" fill="none" xmlns="http://www.w3.org/2000/svg">
<path d="M5.2965 16.1952C5.2965 18.2705 5.75526 20.0933 6.67276 21.6638C7.61807 23.2342 8.84141 24.4541 10.3428 25.3235C11.872 26.1648 13.5262 26.5855 15.3056 26.5855C16.6958 26.5855 17.9469 26.4032 19.0591 26.0386C20.1712 25.674 21.1721 25.1833 22.0618 24.5663C22.9793 23.9213 23.7717 23.2062 24.439 22.421V28.3101C23.2156 29.3197 21.895 30.0909 20.477 30.6237C19.0591 31.1566 17.2797 31.423 15.1388 31.423C12.998 31.423 10.9962 31.0584 9.13334 30.3293C7.29833 29.6002 5.69965 28.5485 4.33729 27.1744C2.97494 25.8002 1.90452 24.1877 1.12603 22.3368C0.375343 20.4579 0 18.4107 0 16.1952C0 13.9798 0.375343 11.9466 1.12603 10.0957C1.90452 8.21681 2.97494 6.59027 4.33729 5.21613C5.69965 3.84199 7.29833 2.79035 9.13334 2.06121C10.9962 1.33208 12.998 0.967509 15.1388 0.967509C17.2797 0.967509 19.0591 1.23392 20.477 1.76675C21.895 2.29958 23.2156 3.07079 24.439 4.08036V9.96954C23.7717 9.18432 22.9793 8.48323 22.0618 7.86626C21.1721 7.22126 20.1712 6.71647 19.0591 6.3519C17.9469 5.98733 16.6958 5.80505 15.3056 5.80505C13.5262 5.80505 11.872 6.23973 10.3428 7.10908C8.84141 7.9504 7.61807 9.15628 6.67276 10.7267C5.75526 12.2691 5.2965 14.092 5.2965 16.1952Z" fill="#1188B4"/>
<path d="M34.048 16.1952C34.048 18.2144 34.4651 20.0232 35.2992 21.6217C36.1611 23.1922 37.3427 24.4261 38.8441 25.3235C40.3454 26.2209 42.0553 26.6696 43.9738 26.6696C45.92 26.6696 47.6299 26.2209 49.1034 25.3235C50.6048 24.4261 51.7725 23.1922 52.6066 21.6217C53.4685 20.0232 53.8995 18.2144 53.8995 16.1952C53.8995 14.1761 53.4824 12.3813 52.6483 10.8109C51.8142 9.21236 50.6465 7.96442 49.1451 7.06702C47.6716 6.16962 45.9478 5.72092 43.9738 5.72092C42.0553 5.72092 40.3454 6.16962 38.8441 7.06702C37.3427 7.96442 36.1611 9.21236 35.2992 10.8109C34.4651 12.3813 34.048 14.1761 34.048 16.1952ZM28.8349 16.1952C28.8349 13.9798 29.2103 11.9466 29.961 10.0957C30.7116 8.24485 31.7682 6.64636 33.1305 5.30026C34.5207 3.92612 36.1333 2.86046 37.9683 2.10328C39.8311 1.3461 41.8329 0.967509 43.9738 0.967509C46.1702 0.967509 48.1859 1.3461 50.0209 2.10328C51.8559 2.86046 53.4546 3.92612 54.817 5.30026C56.2071 6.64636 57.2776 8.24485 58.0283 10.0957C58.7789 11.9466 59.1543 13.9798 59.1543 16.1952C59.1543 18.3827 58.7789 20.4158 58.0283 22.2948C57.2776 24.1737 56.221 25.8002 54.8587 27.1744C53.4963 28.5485 51.8837 29.6282 50.0209 30.4134C48.1859 31.1706 46.1702 31.5492 43.9738 31.5492C41.8051 31.5492 39.7894 31.1706 37.9266 30.4134C36.0637 29.6282 34.4512 28.5485 33.0888 27.1744C31.7543 25.8002 30.7116 24.1737 29.961 22.2948C29.2103 20.4158 28.8349 18.3827 28.8349 16.1952Z" fill="#1188B4"/>
<path d="M63.7317 1.47229H68.6529V21.0328C68.6529 22.8556 69.1255 24.3279 70.0708 25.4497C71.0439 26.5434 72.4758 27.0902 74.3664 27.0902C76.2292 27.0902 77.6472 26.5434 78.6203 25.4497C79.5934 24.3279 80.08 22.8556 80.08 21.0328V1.47229H85.0011V21.2431C85.0011 22.8697 84.737 24.3279 84.2087 25.6179C83.7083 26.8799 82.9854 27.9596 82.0401 28.857C81.0948 29.7544 79.9688 30.4415 78.662 30.9182C77.3553 31.395 75.9234 31.6333 74.3664 31.6333C72.8094 31.6333 71.3776 31.395 70.0708 30.9182C68.7641 30.4415 67.6241 29.7544 66.651 28.857C65.7057 27.9596 64.9828 26.8799 64.4824 25.6179C63.9819 24.3279 63.7317 22.8697 63.7317 21.2431V1.47229Z" fill="#1188B4"/>
<path d="M112.62 1.47229H117.458V32.3905L96.1467 11.1474V30.9182H91.309V0L112.62 21.2431V1.47229Z" fill="#1188B4"/>
<path d="M121.012 6.05744V1.47229H141.364V6.05744H133.649V30.9182H128.686V6.05744H121.012Z" fill="#1188B4"/>
<path d="M147.991 30.9182V26.5434H162.713V30.9182H147.991ZM147.991 5.84712V1.47229H162.713V5.84712H147.991ZM147.991 17.289V12.9983H161.879V17.289H147.991ZM144.947 1.47229H149.785V30.9182H144.947V1.47229Z" fill="#1188B4"/>
<path d="M174.778 16.8683H180.116L190 30.9182H184.078L174.778 16.8683ZM168.772 1.47229H173.693V30.9182H168.772V1.47229ZM171.692 5.76298V1.47229H177.781C179.894 1.47229 181.729 1.85088 183.286 2.60807C184.87 3.36525 186.094 4.43091 186.956 5.80505C187.817 7.15115 188.248 8.74964 188.248 10.6005C188.248 12.4514 187.817 14.0639 186.956 15.4381C186.094 16.8122 184.87 17.8779 183.286 18.6351C181.729 19.3922 179.894 19.7708 177.781 19.7708H171.692V15.6905H177.572C178.684 15.6905 179.657 15.4942 180.491 15.1015C181.353 14.7089 182.02 14.1481 182.493 13.4189C182.966 12.6617 183.202 11.7643 183.202 10.7267C183.202 9.66106 182.966 8.76366 182.493 8.03453C182.02 7.30539 181.353 6.74451 180.491 6.3519C179.657 5.95929 178.684 5.76298 177.572 5.76298H171.692Z" fill="#1188B4"/>
<path d="M1.03335 48.3287V47.1135H11.9693V48.3287H1.03335ZM11.112 40.2661H12.4095V56.625H11.112V40.2661ZM0.361441 40.2661H1.63575V56.625H0.361441V40.2661Z" fill="#1188B4"/>
<path d="M19.6262 53.3999C19.6262 53.9296 19.742 54.3737 19.9737 54.732C20.2209 55.0903 20.5452 55.363 20.9468 55.5499C21.3639 55.7213 21.8195 55.807 22.3138 55.807C22.9162 55.807 23.4646 55.6668 23.9588 55.3864C24.4686 55.1059 24.8779 54.6931 25.1868 54.1478C25.4957 53.6025 25.6502 52.9325 25.6502 52.138L25.9282 53.1662C25.9282 54.0075 25.7274 54.7008 25.3258 55.2461C24.9242 55.7914 24.4222 56.1965 23.8198 56.4614C23.2174 56.7262 22.6073 56.8587 21.9894 56.8587C21.387 56.8587 20.8078 56.734 20.2517 56.4847C19.6957 56.2199 19.2477 55.8382 18.9079 55.3396C18.5681 54.8411 18.3982 54.2101 18.3982 53.4467C18.3982 52.4028 18.7535 51.5771 19.464 50.9695C20.19 50.3619 21.1708 50.058 22.4065 50.058C23.1016 50.058 23.6963 50.1437 24.1905 50.3151C24.7003 50.4709 25.1173 50.6501 25.4417 50.8526C25.766 51.0552 25.9977 51.2265 26.1367 51.3668V52.138C25.6116 51.764 25.0478 51.4914 24.4454 51.32C23.8584 51.1331 23.2406 51.0396 22.5918 51.0396C21.9894 51.0396 21.4643 51.1253 21.0163 51.2966C20.5838 51.468 20.244 51.7251 19.9969 52.0678C19.7497 52.4106 19.6262 52.8546 19.6262 53.3999ZM19.6725 47.8379L19.0701 46.9265C19.4717 46.6461 19.9892 46.3656 20.6225 46.0852C21.2712 45.7892 22.0667 45.6412 23.0089 45.6412C23.8121 45.6412 24.4995 45.7736 25.071 46.0384C25.6425 46.3033 26.0827 46.685 26.3916 47.1836C26.7005 47.6821 26.855 48.2897 26.855 49.0064V56.625H25.6502V49.17C25.6502 48.8584 25.6039 48.5624 25.5112 48.2819C25.4185 47.9859 25.264 47.7211 25.0478 47.4874C24.847 47.2537 24.569 47.0667 24.2137 46.9265C23.8584 46.7863 23.4259 46.7162 22.9162 46.7162C22.391 46.7162 21.9199 46.7785 21.5029 46.9031C21.0858 47.0278 20.7229 47.1758 20.4139 47.3472C20.1205 47.5185 19.8733 47.6821 19.6725 47.8379Z" fill="#1188B4"/>
<path d="M34.6142 45.8749V56.625H33.4094V45.8749H34.6142ZM38.1591 47.3004C37.9274 47.129 37.7034 47.0044 37.4872 46.9265C37.2864 46.833 37.047 46.7863 36.7689 46.7863C36.2438 46.7863 35.819 46.9343 35.4946 47.2303C35.1857 47.5263 34.9617 47.9236 34.8227 48.4222C34.6837 48.9207 34.6142 49.4738 34.6142 50.0814H34.0581C34.0581 49.2245 34.1894 48.4689 34.452 47.8146C34.7146 47.1446 35.0698 46.6149 35.5178 46.2254C35.9812 45.8359 36.4909 45.6412 37.047 45.6412C37.3868 45.6412 37.7034 45.6957 37.9969 45.8047C38.3058 45.8982 38.5839 46.0618 38.831 46.2955L38.1591 47.3004Z" fill="#1188B4"/>
<path d="M43.0835 45.8749H44.4505L47.9954 54.6385L51.5403 45.8749H52.9073L47.9954 57.2559L43.0835 45.8749Z" fill="#1188B4"/>
<path d="M61.7346 56.8587C60.7769 56.8587 59.9274 56.6172 59.186 56.1342C58.4445 55.6512 57.8576 54.9891 57.4251 54.1478C57.008 53.2909 56.7995 52.3171 56.7995 51.2265C56.7995 50.1359 57.0158 49.17 57.4483 48.3287C57.8808 47.4874 58.4832 46.833 59.2555 46.3656C60.0278 45.8826 60.9159 45.6412 61.9199 45.6412C62.893 45.6412 63.7426 45.8671 64.4686 46.3189C65.21 46.7707 65.7815 47.4017 66.1831 48.2118C66.6001 49.0064 66.8087 49.9256 66.8087 50.9695C66.8087 51.0629 66.8009 51.1642 66.7855 51.2733C66.7855 51.3823 66.7778 51.4758 66.7623 51.5537H57.5641V50.5021H65.8587L65.349 51.2265C65.3799 51.1486 65.4108 51.0474 65.4417 50.9227C65.488 50.7825 65.5112 50.6501 65.5112 50.5254C65.5112 49.7932 65.349 49.1388 65.0246 48.5624C64.7157 47.9859 64.2909 47.5341 63.7503 47.2069C63.2097 46.8798 62.5996 46.7162 61.9199 46.7162C61.1322 46.7162 60.4448 46.9031 59.8579 47.277C59.2864 47.6354 58.8384 48.1495 58.514 48.8194C58.1897 49.4738 58.0275 50.2528 58.0275 51.1564C58.0275 52.0756 58.182 52.878 58.4909 53.5635C58.8153 54.249 59.2632 54.7787 59.8347 55.1527C60.4217 55.5266 61.1013 55.7135 61.8736 55.7135C62.6922 55.7135 63.4028 55.5344 64.0052 55.176C64.623 54.8177 65.1714 54.2568 65.6502 53.4934L66.6233 54.1244C66.0209 55.0592 65.3181 55.7525 64.5149 56.2043C63.7271 56.6405 62.8004 56.8587 61.7346 56.8587Z" fill="#1188B4"/>
<path d="M72.7577 53.5635C72.9122 53.953 73.1207 54.3113 73.3833 54.6385C73.6459 54.9657 73.978 55.2306 74.3796 55.4331C74.7966 55.6356 75.2832 55.7369 75.8392 55.7369C76.488 55.7369 77.0054 55.5733 77.3916 55.2461C77.7932 54.9034 77.994 54.436 77.994 53.844C77.994 53.4077 77.8704 53.0494 77.6233 52.7689C77.3762 52.4729 77.0518 52.2314 76.6502 52.0445C76.2486 51.8419 75.8161 51.6628 75.3527 51.507C74.8584 51.32 74.3796 51.1097 73.9162 50.876C73.4528 50.6423 73.0667 50.3307 72.7577 49.9412C72.4643 49.5361 72.3175 49.0142 72.3175 48.3754C72.3175 47.7678 72.4643 47.2615 72.7577 46.8564C73.0667 46.4513 73.4605 46.1553 73.9394 45.9683C74.4337 45.7658 74.9588 45.6645 75.5149 45.6645C76.1173 45.6645 76.6579 45.7658 77.1367 45.9683C77.6156 46.1709 78.0249 46.4357 78.3647 46.7629C78.7045 47.0901 78.9671 47.4562 79.1525 47.8613L78.1562 48.4689C77.909 48.0015 77.5615 47.5964 77.1136 47.2537C76.6656 46.9109 76.0864 46.7395 75.3759 46.7395C74.8507 46.7395 74.4028 46.872 74.0321 47.1368C73.6768 47.4017 73.4992 47.7912 73.4992 48.3053C73.4992 48.726 73.615 49.0765 73.8467 49.357C74.0784 49.6218 74.3873 49.8399 74.7735 50.0113C75.1596 50.1827 75.5689 50.3463 76.0014 50.5021C76.5729 50.7202 77.0981 50.9617 77.577 51.2265C78.0712 51.4914 78.4651 51.8186 78.7586 52.2081C79.0675 52.5976 79.222 53.0961 79.222 53.7037C79.222 54.6385 78.8976 55.4019 78.2489 55.994C77.6156 56.5704 76.7892 56.8587 75.7697 56.8587C75.0283 56.8587 74.3796 56.7262 73.8235 56.4614C73.2829 56.1965 72.8427 55.8537 72.5029 55.4331C72.1785 55.0124 71.9391 54.5762 71.7846 54.1244L72.7577 53.5635Z" fill="#1188B4"/>
<path d="M83.7474 45.8749H88.4276V47.02H83.7474V45.8749ZM85.4851 42.1357H86.6899V56.625H85.4851V42.1357Z" fill="#1188B4"/>
<path d="M93.7039 41.0139C93.7039 40.7647 93.7888 40.5621 93.9587 40.4063C94.1286 40.235 94.3295 40.1493 94.5611 40.1493C94.8083 40.1493 95.0091 40.235 95.1635 40.4063C95.3334 40.5621 95.4184 40.7647 95.4184 41.0139C95.4184 41.2476 95.3334 41.4502 95.1635 41.6216C95.0091 41.7929 94.8083 41.8786 94.5611 41.8786C94.3295 41.8786 94.1286 41.7929 93.9587 41.6216C93.7888 41.4502 93.7039 41.2476 93.7039 41.0139ZM93.9587 45.8749H95.1635V56.625H93.9587V45.8749Z" fill="#1188B4"/>
<path d="M109.168 49.7075C109.168 48.7883 108.967 48.0716 108.565 47.5575C108.164 47.0434 107.53 46.7863 106.665 46.7863C106.063 46.7863 105.522 46.9343 105.043 47.2303C104.58 47.5107 104.209 47.9002 103.931 48.3988C103.669 48.8973 103.537 49.4582 103.537 50.0814V56.625H102.333V45.8749H103.537V48.1184C103.831 47.3394 104.271 46.7318 104.858 46.2955C105.46 45.8593 106.156 45.6412 106.943 45.6412C108.055 45.6412 108.905 45.9995 109.492 46.7162C110.079 47.4173 110.372 48.3676 110.372 49.5673V56.625H109.168V49.7075Z" fill="#1188B4"/>
<path d="M116.602 57.326H117.83C117.83 57.996 117.985 58.5958 118.294 59.1255C118.602 59.6552 119.035 60.0759 119.591 60.3875C120.163 60.6991 120.819 60.8549 121.56 60.8549C122.225 60.8549 122.85 60.6991 123.437 60.3875C124.024 60.0759 124.503 59.5851 124.874 58.9152C125.26 58.2608 125.453 57.4195 125.453 56.3913V45.8749H126.658V56.3913C126.658 57.6221 126.418 58.6503 125.939 59.4761C125.461 60.3174 124.835 60.9484 124.063 61.369C123.29 61.7897 122.456 62 121.56 62C120.587 62 119.722 61.8053 118.965 61.4158C118.224 61.0263 117.645 60.4732 117.228 59.7565C116.811 59.0554 116.602 58.2453 116.602 57.326ZM116.347 51.2499C116.347 50.0814 116.579 49.0843 117.042 48.2586C117.506 47.4173 118.124 46.7707 118.896 46.3189C119.684 45.8671 120.549 45.6412 121.491 45.6412C122.418 45.6412 123.213 45.8904 123.877 46.389C124.542 46.872 125.059 47.5341 125.43 48.3754C125.816 49.2167 126.009 50.1749 126.009 51.2499C126.009 52.3093 125.816 53.2675 125.43 54.1244C125.059 54.9657 124.542 55.6356 123.877 56.1342C123.213 56.6172 122.418 56.8587 121.491 56.8587C120.549 56.8587 119.684 56.6327 118.896 56.1809C118.124 55.7291 117.506 55.0826 117.042 54.2412C116.579 53.3999 116.347 52.4028 116.347 51.2499ZM117.575 51.2499C117.575 52.1847 117.753 52.9871 118.108 53.657C118.479 54.3269 118.973 54.8411 119.591 55.1994C120.224 55.5422 120.912 55.7135 121.653 55.7135C122.317 55.7135 122.935 55.5188 123.507 55.1293C124.094 54.7398 124.565 54.2101 124.92 53.5401C125.275 52.8546 125.453 52.0756 125.453 51.2032C125.453 50.58 125.352 50.0035 125.152 49.4738C124.951 48.9441 124.665 48.4767 124.294 48.0716C123.939 47.6665 123.53 47.3549 123.066 47.1368C122.618 46.9031 122.147 46.7863 121.653 46.7863C120.912 46.7863 120.224 46.9654 119.591 47.3238C118.973 47.6665 118.479 48.1729 118.108 48.8428C117.753 49.5128 117.575 50.3151 117.575 51.2499Z" fill="#1188B4"/>
<path d="M145.041 51.1331L145.458 49.9178H152.941L153.359 51.1331H145.041ZM149.165 42.6031L146.014 50.3385L145.875 50.6189L143.442 56.625H142.006L149.165 39.6351L156.324 56.625H154.888L152.478 50.7124L152.362 50.4086L149.165 42.6031Z" fill="#1188B4"/>
<path d="M162.69 61.7663H161.485V45.8749H162.69V61.7663ZM171.795 51.2499C171.795 52.4028 171.564 53.3999 171.1 54.2412C170.652 55.0826 170.034 55.7291 169.247 56.1809C168.474 56.6327 167.609 56.8587 166.652 56.8587C165.756 56.8587 164.968 56.6172 164.288 56.1342C163.609 55.6356 163.076 54.9657 162.69 54.1244C162.319 53.2675 162.134 52.3093 162.134 51.2499C162.134 50.1749 162.319 49.2167 162.69 48.3754C163.076 47.5341 163.609 46.872 164.288 46.389C164.968 45.8904 165.756 45.6412 166.652 45.6412C167.609 45.6412 168.474 45.8671 169.247 46.3189C170.034 46.7707 170.652 47.4173 171.1 48.2586C171.564 49.0843 171.795 50.0814 171.795 51.2499ZM170.59 51.2499C170.59 50.3151 170.405 49.5128 170.034 48.8428C169.664 48.1729 169.169 47.6665 168.552 47.3238C167.934 46.9654 167.246 46.7863 166.49 46.7863C165.841 46.7863 165.223 46.981 164.636 47.3705C164.049 47.76 163.578 48.2897 163.223 48.9597C162.867 49.6296 162.69 50.393 162.69 51.2499C162.69 52.1068 162.867 52.8702 163.223 53.5401C163.578 54.2101 164.049 54.7398 164.636 55.1293C165.223 55.5188 165.841 55.7135 166.49 55.7135C167.246 55.7135 167.934 55.5422 168.552 55.1994C169.169 54.8411 169.664 54.3269 170.034 53.657C170.405 52.9871 170.59 52.1847 170.59 51.2499Z" fill="#1188B4"/>
<path d="M178.853 61.7663H177.648V45.8749H178.853V61.7663ZM187.959 51.2499C187.959 52.4028 187.727 53.3999 187.264 54.2412C186.816 55.0826 186.198 55.7291 185.41 56.1809C184.638 56.6327 183.773 56.8587 182.815 56.8587C181.919 56.8587 181.131 56.6172 180.452 56.1342C179.772 55.6356 179.239 54.9657 178.853 54.1244C178.482 53.2675 178.297 52.3093 178.297 51.2499C178.297 50.1749 178.482 49.2167 178.853 48.3754C179.239 47.5341 179.772 46.872 180.452 46.389C181.131 45.8904 181.919 45.6412 182.815 45.6412C183.773 45.6412 184.638 45.8671 185.41 46.3189C186.198 46.7707 186.816 47.4173 187.264 48.2586C187.727 49.0843 187.959 50.0814 187.959 51.2499ZM186.754 51.2499C186.754 50.3151 186.568 49.5128 186.198 48.8428C185.827 48.1729 185.333 47.6665 184.715 47.3238C184.097 46.9654 183.41 46.7863 182.653 46.7863C182.004 46.7863 181.386 46.981 180.799 47.3705C180.212 47.76 179.741 48.2897 179.386 48.9597C179.031 49.6296 178.853 50.393 178.853 51.2499C178.853 52.1068 179.031 52.8702 179.386 53.5401C179.741 54.2101 180.212 54.7398 180.799 55.1293C181.386 55.5188 182.004 55.7135 182.653 55.7135C183.41 55.7135 184.097 55.5422 184.715 55.1994C185.333 54.8411 185.827 54.3269 186.198 53.657C186.568 52.9871 186.754 52.1847 186.754 51.2499Z" fill="#1188B4"/>
</svg>
