<svg width="346" height="347" viewBox="0 0 346 347" fill="none" xmlns="http://www.w3.org/2000/svg">
<path d="M76.3748 250.408H267.028V336.741H76.3748V250.408Z" fill="#EBF2F5"/>
<path d="M100.656 346.333C85.0083 346.333 71.6536 340.434 60.5922 328.635C49.5307 316.836 44 302.591 44 285.9V61.4333C44 44.7422 49.5307 30.4972 60.5922 18.6983C71.6536 6.89944 85.0083 1 100.656 1H303V260C296.255 260 290.522 262.518 285.801 267.554C281.079 272.59 278.719 278.705 278.719 285.9C278.719 293.094 281.079 299.21 285.801 304.246C290.522 309.282 296.255 311.8 303 311.8V346.333H100.656ZM100.656 311.8H262.423C260.804 307.771 259.523 303.67 258.579 299.497C257.634 295.325 257.162 290.792 257.162 285.9C257.162 281.295 257.567 276.835 258.376 272.518C259.186 268.202 260.534 264.029 262.423 260H100.656C93.6416 260 87.8411 262.518 83.2547 267.554C78.6682 272.59 76.375 278.705 76.375 285.9C76.375 293.382 78.6682 299.569 83.2547 304.462C87.8411 309.354 93.6416 311.8 100.656 311.8Z" fill="#1188B4"/>
<path d="M142.546 132.227C142.546 143.499 145.092 153.274 150.185 161.552C155.278 169.654 161.952 175.819 170.207 180.046C178.637 184.273 187.857 186.386 197.868 186.386C206.649 186.386 214.376 185.241 221.05 182.952C227.724 180.662 233.695 177.668 238.964 173.969C244.233 170.271 248.887 166.308 252.926 162.081V210.163C245.55 215.975 237.471 220.555 228.69 223.901C219.909 227.247 208.756 228.921 195.233 228.921C180.481 228.921 166.87 226.631 154.4 222.052C141.931 217.472 131.218 210.868 122.261 202.238C113.304 193.607 106.367 183.392 101.449 171.592C96.5317 159.791 94.073 146.67 94.073 132.227C94.073 117.785 96.5317 104.664 101.449 92.8632C106.367 81.0627 113.304 70.8474 122.261 62.2172C131.218 53.587 141.931 46.9823 154.4 42.403C166.87 37.8237 180.481 35.5341 195.233 35.5341C208.756 35.5341 219.909 37.2073 228.69 40.5537C237.471 43.9001 245.55 48.4793 252.926 54.2915V102.374C248.887 98.1469 244.233 94.1841 238.964 90.4855C233.695 86.6107 227.724 83.6165 221.05 81.503C214.376 79.2134 206.649 78.0686 197.868 78.0686C187.857 78.0686 178.637 80.1821 170.207 84.4091C161.952 88.6361 155.278 94.8005 150.185 102.902C145.092 111.004 142.546 120.779 142.546 132.227Z" fill="#EBF2F5"/>
</svg>
